<?xml version="1.0" encoding="UTF-8"?><svg id="Layer_1" data-name="Layer 1" xmlns="http://www.w3.org/2000/svg" viewBox="0 0 1920 1080"><defs><style>.cls-1 {
        fill: #6459f4;
      }

      .cls-1, .cls-2, .cls-3, .cls-4, .cls-5 {
        stroke-width: 0px;
      }

      .cls-2 {
        fill: #a39de7;
      }

      .cls-3 {
        fill: #0d006f;
      }

      .cls-4 {
        fill: #fff;
      }

      .cls-5 {
        fill: #2b00b0;
      }</style></defs><g><g><path class="cls-4" d="M692.81,646.3c-8.84,0-17.29-1.25-25.36-3.75s-15.47-6.24-22.19-11.24c-6.73-4.99-12.58-11.09-17.58-18.3-5-7.2-8.93-15.61-11.81-25.21l36.6-14.41c2.69,10.37,7.39,18.97,14.12,25.79,6.72,6.82,15.56,10.23,26.51,10.23,4.03,0,7.92-.53,11.67-1.58,3.75-1.05,7.1-2.59,10.09-4.61,2.98-2.02,5.33-4.56,7.06-7.64,1.73-3.07,2.59-6.63,2.59-10.66s-.68-7.3-2.02-10.37c-1.35-3.07-3.6-5.95-6.77-8.64-3.17-2.69-7.3-5.28-12.39-7.78-5.09-2.49-11.38-5.09-18.87-7.78l-12.68-4.61c-5.57-1.92-11.19-4.51-16.86-7.78-5.67-3.26-10.81-7.2-15.42-11.81-4.61-4.61-8.41-10.04-11.38-16.28-2.98-6.24-4.47-13.3-4.47-21.18s1.58-15.6,4.75-22.62c3.17-7.01,7.68-13.16,13.54-18.44,5.86-5.28,12.87-9.41,21.04-12.39,8.16-2.98,17.24-4.47,27.23-4.47s19.35,1.4,26.94,4.18c7.59,2.79,14.02,6.34,19.31,10.66,5.28,4.32,9.55,9.08,12.82,14.26,3.26,5.19,5.66,10.09,7.2,14.7l-34.29,14.41c-1.92-5.76-5.43-10.95-10.52-15.56-5.09-4.61-12.06-6.92-20.89-6.92s-15.47,1.97-21.04,5.91c-5.57,3.94-8.36,9.08-8.36,15.42s2.69,11.38,8.07,15.7c5.38,4.32,13.93,8.5,25.65,12.53l12.97,4.32c8.26,2.88,15.8,6.2,22.62,9.94,6.82,3.75,12.68,8.21,17.58,13.4,4.9,5.19,8.64,11.09,11.24,17.72,2.59,6.63,3.89,14.26,3.89,22.91,0,10.76-2.16,20.03-6.48,27.81-4.32,7.78-9.85,14.17-16.57,19.16-6.73,5-14.31,8.74-22.76,11.24-8.46,2.49-16.71,3.75-24.78,3.75Z"/><path class="cls-4" d="M877.8,626.7h-2.31c-4.42,5.38-9.75,9.99-15.99,13.83-6.24,3.84-14.26,5.76-24.06,5.76-7.3,0-14.17-1.2-20.6-3.6-6.44-2.4-12.06-5.71-16.86-9.94-4.8-4.22-8.55-9.32-11.24-15.27-2.69-5.95-4.03-12.48-4.03-19.59s1.44-13.88,4.32-19.74c2.88-5.86,6.92-10.9,12.1-15.13,5.19-4.22,11.28-7.44,18.3-9.65,7.01-2.21,14.65-3.31,22.91-3.31,9.22,0,16.81.72,22.76,2.16,5.95,1.44,10.85,2.93,14.7,4.47v-4.32c0-7.49-2.98-13.69-8.93-18.59-5.96-4.9-13.35-7.35-22.19-7.35-13.07,0-24.11,5.47-33.14,16.42l-27.37-18.73c14.98-18.82,35.44-28.24,61.38-28.24,21.9,0,38.61,5.14,50.14,15.42,11.53,10.28,17.29,25.5,17.29,45.67v84.72h-37.17v-14.98ZM877.8,584.34c-4.42-2.11-8.98-3.79-13.69-5.04-4.71-1.25-9.85-1.87-15.42-1.87-9.03,0-15.99,1.97-20.89,5.91-4.9,3.94-7.35,8.79-7.35,14.55s2.35,10.37,7.06,13.83c4.71,3.46,10.13,5.19,16.28,5.19,4.99,0,9.6-.91,13.83-2.74,4.22-1.82,7.83-4.22,10.81-7.2,2.98-2.98,5.28-6.43,6.92-10.37,1.63-3.93,2.45-8.02,2.45-12.25Z"/><path class="cls-4" d="M927.07,500.49h42.36l23.34,88.46h2.02l27.95-88.46h38.9l28.24,88.46h2.02l23.05-88.46h41.78l-45.24,141.19h-40.63l-28.24-89.04h-2.02l-28.24,89.04h-40.05l-45.24-141.19Z"/><path class="cls-4" d="M1174.02,500.49h35.44v18.44h2.3c4.42-6.92,10.42-12.48,18.01-16.71,7.59-4.22,15.99-6.34,25.21-6.34,10.76,0,19.78,2.5,27.09,7.49,7.3,5,12.48,11.14,15.56,18.44,4.42-7.1,10.66-13.21,18.73-18.3,8.07-5.09,17.87-7.64,29.39-7.64,8.64,0,16.14,1.4,22.48,4.18,6.34,2.79,11.57,6.68,15.7,11.67,4.13,5,7.25,11,9.36,18.01,2.11,7.01,3.17,14.65,3.17,22.91v89.04h-37.75v-82.12c0-19.21-7.88-28.81-23.63-28.81-5,0-9.41,1.11-13.25,3.31-3.84,2.21-7.06,5.19-9.65,8.93-2.59,3.75-4.61,8.21-6.05,13.4-1.44,5.19-2.16,10.76-2.16,16.71v68.58h-37.75v-82.12c0-19.21-8.26-28.81-24.78-28.81-4.8,0-9.03,1.11-12.68,3.31-3.65,2.21-6.73,5.19-9.22,8.93-2.5,3.75-4.42,8.21-5.76,13.4-1.35,5.19-2.02,10.76-2.02,16.71v68.58h-37.75v-141.19Z"/><path class="cls-4" d="M1448.63,481.47c-3.27,0-6.39-.62-9.37-1.87-2.98-1.25-5.57-2.98-7.78-5.19-2.21-2.21-3.94-4.75-5.19-7.64-1.25-2.88-1.87-6.05-1.87-9.51s.62-6.63,1.87-9.51c1.25-2.88,2.98-5.43,5.19-7.64,2.21-2.21,4.8-3.94,7.78-5.19,2.98-1.25,6.1-1.87,9.37-1.87,6.72,0,12.48,2.35,17.29,7.06,4.8,4.71,7.2,10.42,7.2,17.15s-2.4,12.44-7.2,17.15c-4.8,4.71-10.57,7.06-17.29,7.06ZM1429.9,641.69v-141.19h37.75v141.19h-37.75Z"/><path class="cls-4" d="M1502.22,641.69v-206.32h37.75v206.32h-37.75Z"/><path class="cls-4" d="M1572.24,641.69v-206.32h37.75v206.32h-37.75Z"/><path class="cls-4" d="M1696.73,646.3c-9.22,0-17.43-1.15-24.64-3.46-7.2-2.3-13.45-5.33-18.73-9.08-5.29-3.75-9.75-8.07-13.4-12.97-3.65-4.9-6.44-9.84-8.36-14.84l33.71-14.41c3.26,7.3,7.64,12.73,13.11,16.28,5.47,3.56,11.57,5.33,18.3,5.33s12.39-1.25,16.42-3.75c4.03-2.5,6.05-5.48,6.05-8.93,0-3.84-1.68-6.96-5.04-9.36-3.36-2.4-9.18-4.56-17.43-6.48l-19.88-4.32c-4.42-.96-8.98-2.49-13.69-4.61-4.71-2.11-8.98-4.8-12.82-8.07-3.84-3.26-7.01-7.2-9.51-11.81-2.5-4.61-3.75-9.99-3.75-16.14,0-6.92,1.49-13.06,4.47-18.44,2.98-5.38,7.06-9.94,12.25-13.69s11.28-6.63,18.3-8.64c7.01-2.02,14.55-3.03,22.62-3.03,13.44,0,25.45,2.64,36.02,7.92,10.56,5.29,18.34,13.69,23.34,25.21l-32.56,13.25c-2.69-5.57-6.63-9.6-11.81-12.1-5.19-2.49-10.37-3.75-15.56-3.75s-10.08,1.11-14.12,3.31c-4.03,2.21-6.05,5.04-6.05,8.5,0,3.27,1.68,5.86,5.04,7.78,3.36,1.92,7.92,3.65,13.69,5.19l21.61,5.19c14.41,3.46,25.11,8.98,32.13,16.57,7.01,7.59,10.52,16.57,10.52,26.94,0,6.15-1.44,12.01-4.32,17.58-2.88,5.57-6.97,10.52-12.25,14.84-5.29,4.32-11.62,7.74-19.02,10.23-7.4,2.49-15.61,3.75-24.64,3.75Z"/></g><g><ellipse class="cls-2" cx="505.01" cy="534.61" rx="18.41" ry="60.26"/><path class="cls-5" d="M325,336c-34.5,0-62.47,91.56-62.47,204.5s27.97,204.5,62.47,204.5,62.47-91.56,62.47-204.5-27.97-204.5-62.47-204.5ZM345.31,661.49c-20.8,0-37.65-55.19-37.65-123.26s16.86-123.26,37.65-123.26,37.65,55.19,37.65,123.26-16.86,123.26-37.65,123.26Z"/><path class="cls-3" d="M283.02,357.99s-71.1,56.78-71.1,170.33,66.49,184.65,66.49,184.65c0,0-123.27-43.99-123.27-190.79s127.87-164.19,127.87-164.19Z"/></g></g><path class="cls-1" d="M414.35,359.95c-30.46,0-55.15,80.84-55.15,180.55s24.69,180.55,55.15,180.55,55.15-80.84,55.15-180.55-24.69-180.55-55.15-180.55ZM432.29,638.78c-16.92,0-30.63-44.9-30.63-100.29s13.72-100.29,30.63-100.29,28.09,44,28.09,99.39-11.18,101.19-28.09,101.19Z"/></svg>