<svg xmlns="http://www.w3.org/2000/svg" width="1480" height="334" viewBox="0 0 1480 334" fill="none">
<path d="M1425.45 267.471C1401.95 267.471 1383 259.461 1367.78 243.174L1392.08 221.014C1402.22 232.495 1412.9 238.102 1424.65 238.102C1436.93 238.102 1443.87 231.961 1443.87 223.684C1443.87 216.475 1440.4 212.47 1418.51 207.397C1381.4 198.586 1375.79 181.766 1375.79 164.144C1375.79 139.847 1395.01 121.692 1427.59 121.692C1450.01 121.692 1464.97 127.299 1479.12 145.721L1452.95 165.746C1446.28 155.066 1437.73 150.794 1428.39 150.794C1418.51 150.794 1411.03 154.532 1411.03 163.076C1411.03 167.882 1413.17 172.154 1429.72 176.426C1470.04 186.838 1479.38 201.79 1479.38 222.616C1479.38 248.247 1456.15 267.471 1425.45 267.471Z" fill="black"/>
<path d="M1317.89 264V69.0937H1353.94V264H1317.89Z" fill="black"/>
<path d="M1257.86 264V69.0937H1293.91V264H1257.86Z" fill="black"/>
<path d="M1197.83 264V125.163H1233.87V264H1197.83ZM1194.09 92.3222C1194.09 80.8414 1203.44 71.2296 1215.72 71.2296C1228.27 71.2296 1237.34 80.8414 1237.34 92.3222C1237.34 104.337 1228.27 113.682 1215.72 113.682C1203.44 113.682 1194.09 104.07 1194.09 92.3222Z" fill="black"/>
<path d="M952.151 264V125.163H987.662V145.454C994.871 129.969 1008.75 121.959 1030.11 121.959C1049.6 121.959 1066.16 131.303 1075.24 148.124C1084.58 131.303 1097.93 121.959 1122.23 121.959C1152.13 121.959 1175.09 144.119 1175.09 179.096V264H1139.05V187.906C1139.05 163.877 1127.57 153.464 1111.28 153.464C1094.46 153.464 1082.98 161.207 1082.98 187.906V264H1046.93V187.906C1046.93 163.877 1034.92 153.464 1017.03 153.464C1001.81 153.464 988.196 163.877 988.196 187.906V264H952.151Z" fill="black"/>
<path d="M766.083 264L722.83 125.163H765.015L782.903 203.926C784.505 210.601 786.107 218.077 787.175 225.019C788.243 218.077 789.845 210.334 791.714 203.659L812.006 125.163H853.39L875.017 203.659C876.886 210.334 878.488 218.077 879.556 225.019C880.624 218.077 882.226 210.601 883.828 203.926L903.051 125.163H942.299L899.046 264H860.065L837.37 184.969C835.234 178.295 833.633 171.086 832.565 164.144C831.497 171.086 830.162 178.295 828.293 184.969L807.467 264H766.083Z" fill="black"/>
<path d="M633.063 267.471C594.883 267.471 564.445 235.165 564.445 195.115C564.445 155.066 594.883 122.226 633.063 122.226C657.093 122.226 669.641 132.105 677.117 147.056V125.163H712.895V264H677.918V241.305C670.442 257.058 657.894 267.471 633.063 267.471ZM600.49 194.848C600.49 215.941 615.975 234.898 638.937 234.898C662.699 234.898 677.918 216.742 677.918 195.115C677.918 173.489 662.699 154.799 638.937 154.799C615.975 154.799 600.49 173.222 600.49 194.848Z" fill="black"/>
<path d="M483.604 267.471C453.968 267.471 428.336 255.723 412.05 227.155L444.356 206.596C453.968 225.82 469.454 234.097 485.74 234.097C503.095 234.097 513.775 225.553 513.775 212.737C513.775 194.047 494.017 188.173 471.056 182.3C442.22 174.824 423.798 158.003 423.798 129.702C423.798 96.0602 450.23 73.8996 489.745 73.8996C518.848 73.8996 537.537 86.7153 551.421 108.609L519.382 128.367C510.304 113.949 501.76 107.274 487.876 107.274C472.925 107.274 461.978 115.284 461.978 127.833C461.978 141.716 475.328 146.255 491.614 151.328C513.508 158.27 551.955 167.882 551.955 210.601C551.955 244.509 526.057 267.471 483.604 267.471Z" fill="black"/>
<path d="M289.832 211.72C298.052 211.72 304.715 189.747 304.715 162.642C304.715 135.537 298.052 113.564 289.832 113.564C281.613 113.564 274.95 135.537 274.95 162.642C274.95 189.747 281.613 211.72 289.832 211.72Z" fill="black"/>
<path d="M144.315 0.887268C116.425 0.887268 87.2749 75.4569 87.2749 167.439C87.2749 259.421 116.425 333.991 144.315 333.991C172.204 333.991 194.814 259.421 194.814 167.439C194.814 75.4569 172.204 0.887268 144.315 0.887268ZM160.733 265.978C143.918 265.978 130.297 221.029 130.297 165.59C130.297 110.152 143.927 65.2032 160.733 65.2032C177.539 65.2032 191.168 110.152 191.168 165.59C191.168 221.029 177.539 265.978 160.733 265.978Z" fill="black"/>
<path d="M216.544 20.3929C191.92 20.3929 165.421 86.2318 165.421 167.439C165.421 248.646 191.92 314.485 216.544 314.485C241.167 314.485 261.126 248.646 261.126 167.439C261.126 86.2318 241.167 20.3929 216.544 20.3929ZM231.046 247.482C217.368 247.482 206.285 210.914 206.285 165.802C206.285 120.691 217.376 84.1224 231.046 84.1224C244.716 84.1224 253.753 119.958 253.753 165.069C253.753 210.181 244.716 247.482 231.046 247.482Z" fill="black"/>
<path d="M94.7097 322.618C39.2149 298.071 0 237.942 0 167.659C0 97.375 39.2149 37.2459 94.7097 12.6995C71.7879 37.2459 55.5905 97.375 55.5905 167.659C55.5905 237.942 71.7879 298.071 94.7097 322.618Z" fill="black"/>
</svg>
